<svg id="Group_7" data-name="Group 7" xmlns="http://www.w3.org/2000/svg" xmlns:xlink="http://www.w3.org/1999/xlink" width="355.361" height="170.776" viewBox="0 0 355.361 170.776">
  <defs>
    <clipPath id="clip-path">
      <rect id="Rectangle_29" data-name="Rectangle 29" width="355.361" height="170.776" fill="none"/>
    </clipPath>
  </defs>
  <g id="Group_6" data-name="Group 6" clip-path="url(#clip-path)">
    <path id="Path_87" data-name="Path 87" d="M.13,277.2c.494-.581.985-1.16,1.867-1.075.489.047.528-.212.5-.64-.8-12.695.214-25.363.558-38.042a12.521,12.521,0,0,1,.061-1.608c.139-.881-.1-1.375-1.078-1.366a1.219,1.219,0,0,1-1.106-.5,1.366,1.366,0,0,1-.153-1.511,1.378,1.378,0,0,1,1.445-.745,38.669,38.669,0,0,0,4.6.232,1.41,1.41,0,0,1,.129,2.816c-.89,0-1.046.346-1.067,1.151q-.21,8.1-.527,16.206c-.031.8.083,1.153,1.018,1.148,6.641-.043,13.282-.037,19.924-.018.7,0,1-.126,1.032-.926q.283-8.562.669-17.121c.035-.814.053-1.373-1.063-1.3-.854.053-1.3-.581-1.292-1.435a1.2,1.2,0,0,1,1.381-1.321,44.891,44.891,0,0,0,4.6-.143,1.191,1.191,0,0,1,1.454,1.121c.089.824-.242,1.552-1.1,1.606-1.13.071-1.186.656-1.214,1.563-.391,12.375-.912,24.747-1.07,37.129-.005.422-.007.843-.009,1.265-.008,1.746-.008,1.745,1.665,1.945a1.4,1.4,0,0,1,.115,2.776,32.008,32.008,0,0,1-6.094-.065,1.277,1.277,0,0,1-1.161-1.566,1.147,1.147,0,0,1,1.4-1.166c1.139.181,1.267-.345,1.273-1.317q.057-8.568.247-17.135c.02-.9-.2-1.148-1.114-1.142-6.6.043-13.206.032-19.808.021-.637,0-1.033,0-1.046.868-.087,5.711-.348,11.42.023,17.13.03.458.1.913.137,1.371s.2.7.722.618a1.3,1.3,0,0,1,1.687,1.256c.093,1.034-.627,1.382-1.5,1.528-.21.035-.477-.059-.574.244H3.586a8.047,8.047,0,0,0-2.17-.118c-.811.131-1.024-.481-1.286-1.032Z" transform="translate(-0.076 -134.281)" fill="#0abdb1"/>
    <path id="Path_88" data-name="Path 88" d="M.055,343.024c.489.18.492.926,1.113.952.1.027.133.065.113.115s-.047.083-.074.083q-1.463.31-1.152-1.151" transform="translate(0 -199.42)" fill="#f1fbfa"/>
    <path id="Path_89" data-name="Path 89" d="M2.828,345.415a1.656,1.656,0,0,0-.039-.2c.782.051,1.6-.269,2.343.2Z" transform="translate(-1.621 -200.66)" fill="#57d2c9"/>
    <path id="Path_90" data-name="Path 90" d="M211.328,236.268a10.837,10.837,0,0,1,3.315-3.94,8.4,8.4,0,0,1,3.558-1.537,5.629,5.629,0,0,1,6.288,3.191,17.446,17.446,0,0,1,1.688,6.755,132.143,132.143,0,0,1,.135,15.517c-.188,6.093-.331,12.187-.522,18.28-.023.724.138.927.9.8,1.149-.187,1.81.266,1.878,1.142.085,1.074-.526,1.51-1.51,1.613a14.669,14.669,0,0,1-5.146-.067c-.943-.236-1.559-.687-1.419-1.737.123-.921.793-1.238,2.04-1.034.112.018.225.033.621.09,0-2.259-.029-4.47.005-6.679.114-7.245.548-14.484.488-21.732a40.159,40.159,0,0,0-.867-9.478,11.9,11.9,0,0,0-.486-1.53c-.917-2.29-2.69-3.049-4.9-1.964-2.352,1.157-3.988,3.038-4.05,5.715-.219,9.43-.929,18.837-1.225,28.263-.026.827-.044,1.381,1.068,1.3.818-.059,1.247.573,1.244,1.354a1.251,1.251,0,0,1-1.343,1.392c-1.728.015-3.455.017-5.183,0a1.208,1.208,0,0,1-1.3-1.3c-.031-.859.4-1.526,1.262-1.434,1.331.143,1.331-.481,1.3-1.51-.216-6.94.23-13.876.22-20.815,0-2.829.237-5.678-.448-8.472a9.276,9.276,0,0,0-1.014-2.552,3.542,3.542,0,0,0-6.04-.422,6.613,6.613,0,0,0-1.429,4.052c-.44,11.492-1.21,22.97-1.41,34.472-.014.8-.122,1.455,1.085,1.335a1.124,1.124,0,0,1,1.209,1.254,1.232,1.232,0,0,1-1.061,1.41,13.344,13.344,0,0,1-5.707-.009c-1.078-.295-1.525-.909-1.29-1.8a1.3,1.3,0,0,1,1.885-.936c.89.3,1.095.073,1.1-.843.087-11.735.834-23.444,1.4-35.16.148-3.073,1.248-5.691,4.111-7.248a6.052,6.052,0,0,1,8.479,2.272c.381.613.684,1.275,1.068,2" transform="translate(-112.333 -134.119)" fill="#0abdb1"/>
    <path id="Path_91" data-name="Path 91" d="M385.572,239.581c0,.713.006,1.427,0,2.14q-.161,16.623.208,33.242c.017.773-.047,1.457,1.069.77a1.118,1.118,0,0,1,1.592.469,1.348,1.348,0,0,1-.182,1.874,3.554,3.554,0,0,1-1.64.789,17.493,17.493,0,0,1-4.93.16,1.258,1.258,0,0,1-1.261-1.477,1.189,1.189,0,0,1,1.423-1.277c1.037.131,1.175-.291,1.148-1.2-.4-13.609-.3-27.221-.159-40.833,0-.306.007-.614.032-.919a1.418,1.418,0,0,1,1.236-1.438,1.354,1.354,0,0,1,1.541.912q2.244,4.464,4.507,8.92,7.292,14.4,14.586,28.8c.134.265.281.524.422.786l.312-.015c0-1.381,0-2.761,0-4.142.041-10.43.068-20.86.151-31.289.008-1-.35-1.111-1.185-1.019-.886.1-1.971.36-2.152-1.014a1.374,1.374,0,0,1,1.278-1.711,23.909,23.909,0,0,1,6.315.012,1.388,1.388,0,0,1,1.289,1.608,1.132,1.132,0,0,1-1.492,1.153c-1.119-.214-1.224.309-1.227,1.246q-.072,18.059-.215,36.118c-.011,1.61-.1,3.219-.109,4.829,0,.845-.188,1.54-1.093,1.785-1.01.274-1.436-.386-1.827-1.16q-9.254-18.3-18.527-36.588c-.268-.528-.54-1.054-.81-1.581l-.3.056" transform="translate(-221.163 -134.789)" fill="#0abdb1"/>
    <path id="Path_92" data-name="Path 92" d="M391.956,117.126q0-10.182,0-20.364c0-1.9.29-2.182,2.2-2.2,5.912-.058,11.824-.129,17.736-.166.694,0,1.106-.026,1.13-.925.023-.841.673-1.246,1.536-1.184a1.194,1.194,0,0,1,1.213,1.373c-.023,1.879-.043,3.758-.09,5.636a1.363,1.363,0,0,1-1.511,1.5c-.951-.026-1.292-.638-1.306-1.543-.031-2.065-.048-2.08-2.086-2.061-5.029.046-10.058.123-15.087.147-.751,0-.961.217-.957.967q.047,7.823,0,15.646c0,.759.213.954.966.947q8.638-.078,17.277-.064c.668,0,.944-.126.971-.858a1.181,1.181,0,0,1,1.336-1.146,1.3,1.3,0,0,1,1.418,1.227,14.947,14.947,0,0,1-.317,4.569,1.205,1.205,0,0,1-1.321.889,1.141,1.141,0,0,1-1.294-1.051c-.04-.851-.484-.858-1.1-.854-5.529.033-11.058.07-16.586.057-.992,0-1.371.214-1.358,1.324.065,5.637.044,11.274.013,16.911,0,.8.126,1.112,1.034,1.153,6.029.275,12.053,0,18.079-.082.6-.008.789-.193.776-.787-.022-.988.425-1.632,1.508-1.593,1.053.038,1.336.751,1.342,1.65.01,1.266,0,2.531.005,3.8.005.924-.345,1.612-1.333,1.688a1.309,1.309,0,0,1-1.512-1.366c-.049-.86-.647-.6-1.079-.582-4.95.209-9.9.2-14.856.158-1.649-.013-3.3-.1-4.948-.175-1.42-.067-1.794-.473-1.795-1.932q-.008-10.354,0-20.709" transform="translate(-227.866 -53.648)" fill="#0abdb1"/>
    <path id="Path_93" data-name="Path 93" d="M96.475,232.3c-.655.19-1.129.332-1.605.464a1.237,1.237,0,0,1-1.722-.867,1.374,1.374,0,0,1,.937-1.833,15.121,15.121,0,0,1,5.545-.825,19.67,19.67,0,0,1,2.288.239,1.164,1.164,0,0,1,1.145,1.418,1.4,1.4,0,0,1-1.471,1.321c-.7.041-1.572-.513-2.053.13a5.169,5.169,0,0,0-.568,2.079,49.644,49.644,0,0,0-.271,14.094,58.4,58.4,0,0,0,3.14,15.14,24.5,24.5,0,0,0,4.1,7.532,7.215,7.215,0,0,0,2.629,2.009,4.516,4.516,0,0,0,5.187-1.042,15.513,15.513,0,0,0,3.459-5.378,57.79,57.79,0,0,0,3.745-14.409,118.109,118.109,0,0,0,1.222-19.488c-.008-.83-.154-1.071-1.013-.807a1.283,1.283,0,0,1-1.731-1.058,1.269,1.269,0,0,1,1.027-1.649,18.357,18.357,0,0,1,6.953-.575,1.527,1.527,0,0,1,1.468,1.084,1.247,1.247,0,0,1-1.285,1.765c-.855.006-1.969-.592-2.484.125-.4.555-.075,1.625-.077,2.467-.023,9.57-.675,19.068-3.357,28.322-1.091,3.764-2.328,7.472-4.885,10.557-3.5,4.224-8.577,4.443-12.411.52-2.922-2.99-4.51-6.739-5.714-10.636a69.783,69.783,0,0,1-2.77-27.261c.1-1.091.36-2.169.578-3.437" transform="translate(-54.106 -132.942)" fill="#0abdb1"/>
    <path id="Path_94" data-name="Path 94" d="M82.794,115.5c.28-6.516.129-13.034.42-19.546.044-.99-.261-1.222-1.2-1.176-1.993.1-3.982.2-5.967.421-.632.07-.947.168-.9.931.052.9-.543,1.4-1.438,1.454-.873.054-1.191-.484-1.329-1.262a13.533,13.533,0,0,1,.006-4.8c.135-.751.5-1.2,1.291-1.173a1.38,1.38,0,0,1,1.467,1.325c.047.5-.017.864.715.766,4.505-.6,9.04-.381,13.565-.44l1.727-.024c.715-.01,1.478.142,1.33-1.066-.069-.565.487-.915,1.052-1.055a1.136,1.136,0,0,1,1.311.5,7.386,7.386,0,0,1,.927,4.969,1.268,1.268,0,0,1-1.356,1.029,1.132,1.132,0,0,1-1.288-.911c-.111-.706-.525-.7-1.065-.686-1.65.033-3.3.089-4.95.009-.944-.046-1.108.291-1.125,1.151-.2,10.157-.158,20.315-.218,30.473-.018,2.951-.088,5.9-.189,8.851-.026.768.206.992.961.962,1.572-.063,3.146-.052,4.72-.045.512,0,.774-.12.749-.708a1.292,1.292,0,0,1,1.4-1.466c.907,0,1.339.631,1.38,1.52a13.7,13.7,0,0,1-.268,3.543c-.139.646-.425,1.175-1.141,1.271a1.31,1.31,0,0,1-1.514-.79c-.218-.622-.614-.567-1.07-.568-4.145-.005-8.29,0-12.435-.03-.581,0-.879.07-.95.757a1.211,1.211,0,0,1-1.371,1.117,1.313,1.313,0,0,1-1.34-1.177,24.253,24.253,0,0,1-.373-3.884,1.356,1.356,0,0,1,1.217-1.553,1.282,1.282,0,0,1,1.6,1.239c.058.589.381.648.847.654,1.266.018,2.535.018,3.8.11.824.059,1.027-.239,1.023-1.029-.028-6.554-.016-13.108-.016-19.662" transform="translate(-41.955 -52.211)" fill="#0abdb1"/>
    <path id="Path_95" data-name="Path 95" d="M159,120.769c.188,4.327.4,8.652.548,12.98.035,1.031.529.885,1.184.683.813-.252,1.608-.38,2.05.614a1.409,1.409,0,0,1-.947,2,13.251,13.251,0,0,1-6.255.42,1.132,1.132,0,0,1-1.095-1.351c.1-.757.514-1.4,1.314-1.332.978.077,1.031-.352.977-1.117q-.558-7.917-.562-15.855c-.011-5.022.229-10.038.688-15.041.259-2.823.512-5.647.813-8.465.081-.762-.132-.977-.9-.968q-5.009.06-10.019,0c-.651-.006-.854.142-.815.817.066,1.135-.437,1.75-1.322,1.738-1.03-.015-1.376-.717-1.451-1.6a12.012,12.012,0,0,1,.467-4.659,1.389,1.389,0,0,1,1.619-1.133,1.194,1.194,0,0,1,1.184,1.5c-.131.805.445.545.787.547,4.107.014,8.215.009,12.322.009,3.724,0,7.447-.017,11.171.013.765.006,1.223-.038,1.122-1.018a1.223,1.223,0,0,1,1.32-1.411,1.352,1.352,0,0,1,1.482,1.307,20.51,20.51,0,0,1-.3,5.035,1.252,1.252,0,0,1-1.424,1.069,1.2,1.2,0,0,1-1.249-1.359c.059-.776-.273-.857-.919-.851-3.071.027-6.142.034-9.213,0-.72-.009-1.009.191-1.078.926a230.97,230.97,0,0,0-1.495,26.5" transform="translate(-83.225 -51.242)" fill="#0abdb1"/>
    <path id="Path_96" data-name="Path 96" d="M248.727,120.833c.188,4.288.394,8.576.546,12.865.028.8.282,1.039,1.026.788a5.453,5.453,0,0,1,.665-.18,1.219,1.219,0,0,1,1.6.91,1.285,1.285,0,0,1-.748,1.714,12.206,12.206,0,0,1-6.68.489,1.075,1.075,0,0,1-.918-1.363c.13-.752.564-1.352,1.371-1.279.93.084.963-.344.914-1.056q-.546-7.918-.561-15.856c-.013-5.022.229-10.037.679-15.041.257-2.861.52-5.722.822-8.579.076-.721-.134-.911-.852-.9q-5.066.054-10.134,0c-.623-.006-.828.166-.741.767.144,1-.229,1.67-1.283,1.785-.859.093-1.425-.539-1.507-1.653a12.313,12.313,0,0,1,.428-4.436c.262-.89.738-1.44,1.726-1.284a1.2,1.2,0,0,1,1.115,1.549c-.108.6.3.489.626.491,1.152,0,2.3,0,3.455,0,6.756,0,13.513-.009,20.269.013.725,0,1.15-.051,1.055-.965a1.236,1.236,0,0,1,1.272-1.46,1.372,1.372,0,0,1,1.544,1.366,21.465,21.465,0,0,1-.3,4.923,1.275,1.275,0,0,1-1.5,1.114,1.168,1.168,0,0,1-1.18-1.3c.077-.848-.311-.909-.988-.9-3.033.028-6.066.037-9.1-.005-.767-.011-1.064.19-1.14.988a230.79,230.79,0,0,0-1.484,26.505" transform="translate(-135.389 -51.244)" fill="#0abdb1"/>
    <path id="Path_97" data-name="Path 97" d="M3.37,129.912c.283-11.506,1.093-22.011,2.344-32.482.106-.89-.1-1.206-.992-1.048a5.658,5.658,0,0,1-1.149.044,1.172,1.172,0,0,1-1.269-1.2,1.289,1.289,0,0,1,1.067-1.539,27.652,27.652,0,0,1,7.69.076,1.355,1.355,0,0,1,1.1,1.648c-.1.836-.666,1.1-1.48,1.082-2.032-.039-2.081-.022-2.3,1.991-.726,6.629-1.321,13.269-1.716,19.927-.358,6.05-.509,12.1-.538,18.163-.005,1.014.192,1.369,1.3,1.3a115.441,115.441,0,0,1,14.73-.074c1.025.072.621-.646.645-1.076.069-1.253.908-1.873,1.97-1.41a1.243,1.243,0,0,1,.822,1.145,27.359,27.359,0,0,1-.187,5.393c-.146.909-.566,1.575-1.571,1.423a1.331,1.331,0,0,1-1.2-1.751c.2-.853-.21-.907-.881-.947a127.268,127.268,0,0,0-16.108.234c-1.99.132-2.332-.114-2.361-2.2-.044-3.22-.054-6.442.079-8.7" transform="translate(-1.337 -54.329)" fill="#0abdb1"/>
    <path id="Path_98" data-name="Path 98" d="M323.155,129.909c.287-11.531,1.1-22.075,2.354-32.584.09-.752-.068-1.078-.875-.949a7.038,7.038,0,0,1-1.265.05,1.172,1.172,0,0,1-1.279-1.189,1.288,1.288,0,0,1,1.056-1.546,27.671,27.671,0,0,1,7.69.069,1.357,1.357,0,0,1,1.116,1.641c-.091.832-.653,1.107-1.472,1.092-2.04-.036-2.09-.018-2.31,1.98-.728,6.629-1.322,13.269-1.717,19.927-.361,6.089-.5,12.18-.546,18.278-.008,1.083.33,1.245,1.3,1.194a117.724,117.724,0,0,1,14.73-.064c.9.064.652-.507.665-.954.034-1.2.561-1.815,1.508-1.665a1.309,1.309,0,0,1,1.271,1.263,25.7,25.7,0,0,1-.2,5.506c-.149.87-.609,1.467-1.542,1.323a1.335,1.335,0,0,1-1.213-1.744c.186-.829-.177-.917-.869-.959a127.969,127.969,0,0,0-16.108.235c-2,.132-2.341-.11-2.371-2.193-.047-3.221-.052-6.442.078-8.713" transform="translate(-187.246 -54.329)" fill="#0abdb1"/>
    <path id="Path_99" data-name="Path 99" d="M297.378,275.7a10.164,10.164,0,0,1,1.029-.049,1.271,1.271,0,0,1,1.272,1.239,1.165,1.165,0,0,1-.862,1.427,12.356,12.356,0,0,1-6.148.108,1.094,1.094,0,0,1-.855-1.313c.086-.783.573-1.476,1.3-1.33,1.536.308,1.508-.683,1.707-1.641q3.783-18.218,7.594-36.43c.715-3.411,2.8-5.273,5.839-5.308a4.213,4.213,0,0,1,4.523,3.307,54.143,54.143,0,0,1,1.394,6.626c2.052,10.873,3.92,21.781,6.254,32.6.135.628.105,1.39,1.2,1.027a1.011,1.011,0,0,1,1.292.847c.18.672.14,1.39-.558,1.711a10.023,10.023,0,0,1-6.175.742,1.321,1.321,0,0,1-.947-1.632,1.093,1.093,0,0,1,1.39-1.021c1.2.2,1.248-.262,1.029-1.292-1.021-4.793-1.971-9.6-2.9-14.412-.155-.8-.361-.931-1.185-.7a22.311,22.311,0,0,1-11.935.068c-.767-.2-1.048-.13-1.209.673-.982,4.878-2,9.748-3.042,14.755m15.582-18.229c.791-.234,1.078-.571.9-1.469-.721-3.6-1.353-7.222-2.012-10.837-.466-2.561-.893-5.129-1.4-7.682-.191-.968-.425-2-1.651-2.248a3.051,3.051,0,0,0-3.1,1.533,6.7,6.7,0,0,0-.723,2.049c-1.184,5.812-2.337,11.629-3.566,17.432-.173.815.044,1.083.758,1.285a20.733,20.733,0,0,0,10.8-.064" transform="translate(-169.641 -135.111)" fill="#0abdb1"/>
    <path id="Path_100" data-name="Path 100" d="M740.123,332.712c-.31-.075-.62-.151-.925-.222h0c-.159.075-.31.151-.465.226a1.65,1.65,0,0,0,1.118.264,2.024,2.024,0,0,0,1.616.05l-1.34-.318" transform="translate(-429.466 -193.296)" fill="#0abdb1"/>
    <path id="Path_101" data-name="Path 101" d="M645.346,136.59c-.536-5.229-3.751-7.611-8.942-6.811a21.963,21.963,0,0,0-8.791,3.538,33.425,33.425,0,0,1-4.84,2.889,3.913,3.913,0,0,1-1.984.494,38.723,38.723,0,0,1-4.337-.544c-1.658-.377-1.825-.7-1.315-2.29.988-3.106,2.236-6.179,2.545-9.432a71.385,71.385,0,0,0-.142-15.389A28.89,28.89,0,0,0,606.5,89.522a39.163,39.163,0,0,0-10.692-6.033c-.331-.126-.862-.134-.858-.624,0-.381.461-.477.762-.62a65.6,65.6,0,0,0,8.691-5.187c5.1-3.525,9.733-7.49,12.794-13.011a3.215,3.215,0,0,1,1.917-1.536,17.334,17.334,0,0,0,5.861-3.353C628.06,56.483,630.417,53.528,630,49c-.4-4.266-2.859-7.72-6.723-8.44a1.874,1.874,0,0,1-1.788-1.838,28.6,28.6,0,0,0-1.649-6.221A29.957,29.957,0,0,0,611.62,20.58c-2.269-2.06-4.71-3.935-7.134-5.815a30.266,30.266,0,0,0-13.962-6.179c-3.24-.507-6.556-.653-9.842-.846a26.041,26.041,0,0,1-4.546-.653,5.54,5.54,0,0,1-4.274-4.634C571.652,1.4,571.547.276,570.2,0h-.921a5.455,5.455,0,0,0-3.257,2.307,14.35,14.35,0,0,0-1.737,9.21,1.319,1.319,0,0,1-.841,1.633,42,42,0,0,0-4.354,2.093c-2.579,1.6-4.932,3.517-7.473,5.17a35.178,35.178,0,0,0-9.256,8.7,35.655,35.655,0,0,0-6.187,12.007c-.373,1.448-.536,1.453-2.026,1.432a6.874,6.874,0,0,0-5.467,2.227,9.375,9.375,0,0,0-2.143,8.708,12.468,12.468,0,0,0,8.214,9.352,3.321,3.321,0,0,1,2.068,1.959,31.007,31.007,0,0,0,12.848,14.912,46.611,46.611,0,0,0,8.712,4.4c1.051.364,1.1.7.234,1.382-.879.695-1.616,1.532-2.441,2.282-2.88,2.617-6.171,4-10.106,3.081a17.626,17.626,0,0,1-6.221-2.617A47.4,47.4,0,0,1,534.854,84c-2.227-2.056-4.253-4.316-6.342-6.514a2.252,2.252,0,0,1-.578-2.692,14.815,14.815,0,0,0,1.072-4.228c.167-1.88-1.2-2.817-2.843-1.951-.5.264-.67.172-.82-.3-.239-.728-.448-1.469-.745-2.177a4.4,4.4,0,0,0-1.415-2.194,1.613,1.613,0,0,0-2.026-.05c-.594.444-.239,2.761-.067,3.427-.486-.98-1.873-2.886-3.068-2.15-.77.474-.695,1.289-.423,2.093a7.432,7.432,0,0,1,.749,2.8c-.586-.2-.687-.682-.9-1.059a5.872,5.872,0,0,0-1.021-1.52,1.768,1.768,0,0,0-2.135-.272,1.623,1.623,0,0,0-.712,2.005,7.445,7.445,0,0,0,.708,1.444,2.462,2.462,0,0,1,.435,1.737,10.349,10.349,0,0,1-1.331-1.281,2.025,2.025,0,0,0-2.621-.293,1.847,1.847,0,0,0-.435,2.575,22.4,22.4,0,0,0,5.367,7.272,5.9,5.9,0,0,1,1.917,2.918A66.751,66.751,0,0,0,522.5,94.755a34.557,34.557,0,0,0,5.3,7.506,31.4,31.4,0,0,0,12.287,8.1c1.147.406,1.3.741.812,1.8a56.3,56.3,0,0,0-4.953,17.428,5.832,5.832,0,0,1-4.111,5.179c-3.458,1.264-6.883,2.633-10.4,3.751a2.332,2.332,0,0,1-2.453-.461,48.633,48.633,0,0,0-4.576-3.483,27.917,27.917,0,0,0-6.983-3.734,5.952,5.952,0,0,0-7.988,4.982,40.9,40.9,0,0,0,.306,12.233,46.844,46.844,0,0,0,3.575,11.044,26.113,26.113,0,0,0,6.158,8.955,8.154,8.154,0,0,0,4.119,2.411,19.167,19.167,0,0,0,10.307-.871c2.277-.934,4.475-2.022,6.7-3.069,5.25-2.474,10.1-5.681,15.184-8.452,1.181-.641,2.319-1.461,3.709-1.469,2.072-.008,4.145-.092,6.2-.289,2.529-.234,5.066-.08,7.586-.26,4.283-.3,8.578-.306,12.861-.615q3.667-.264,7.335-.565a28.247,28.247,0,0,1,11.8,1.256c1.486.523,2.981,1.013,4.463,1.545a82.03,82.03,0,0,1,11.856,5.321,44.876,44.876,0,0,0,5.388,2.6,14.307,14.307,0,0,0,13.744-1.26c1.352-.888,2.5-2.043,3.8-2.981,4.714-3.4,7.448-8.189,9.545-13.417a23.558,23.558,0,0,0,1.268-11.345m-44.8,3.094a1.649,1.649,0,0,1-1.118-.264c-2.315-.59-4.408-1.566-5.087-4.073a8.118,8.118,0,0,1,.029-4.957c1.7-4.8,3.391-9.6,4.927-14.456a26.058,26.058,0,0,0,1.591-10.077c.628.536.607.54.653,1.407a27.472,27.472,0,0,1-1.721,10.135c-1.348,4.027-2.642,8.076-3.931,12.124a12.8,12.8,0,0,0-.553,2.457c-.381,3.575.737,5.313,4.555,7.213h0c.306.071.615.147.925.222l1.34.318a2.024,2.024,0,0,1-1.616-.05" transform="translate(-290.162)" fill="#0abdb1"/>
    <path id="Path_102" data-name="Path 102" d="M739.194,332.49c.013.419-.205.364-.465.226.155-.075.306-.151.465-.226" transform="translate(-429.466 -193.296)" fill="#0abdb1"/>
    <path id="Path_103" data-name="Path 103" d="M743.015,333.338a2.024,2.024,0,0,1-1.616-.05c.013-.147.147-.163.239-.23l.038-.038,1.34.318" transform="translate(-431.018 -193.604)" fill="#0abdb1"/>
    <path id="Path_104" data-name="Path 104" d="M740.123,332.712l-.038.038c-.08.08-.159.155-.239.23a1.65,1.65,0,0,1-1.118-.264c.155-.075.306-.151.465-.226h0c.306.071.615.146.925.222" transform="translate(-429.466 -193.296)" fill="#0abdb1"/>
  </g>
</svg>
