<svg id="Group_8" data-name="Group 8" xmlns="http://www.w3.org/2000/svg" xmlns:xlink="http://www.w3.org/1999/xlink" width="177.376" height="85.241" viewBox="0 0 177.376 85.241">
  <defs>
    <clipPath id="clip-path">
      <rect id="Rectangle_29" data-name="Rectangle 29" width="177.376" height="85.241" fill="#fff"/>
    </clipPath>
  </defs>
  <g id="Group_6" data-name="Group 6" clip-path="url(#clip-path)">
    <path id="Path_87" data-name="Path 87" d="M.13,254.047c.246-.29.491-.579.932-.537.244.023.264-.106.25-.32-.4-6.337.107-12.66.279-18.988a6.25,6.25,0,0,1,.03-.8c.069-.44-.051-.686-.538-.682a.609.609,0,0,1-.552-.252.682.682,0,0,1-.076-.754.688.688,0,0,1,.721-.372,19.3,19.3,0,0,0,2.294.116.7.7,0,0,1,.064,1.406c-.444,0-.522.173-.532.575q-.1,4.045-.263,8.089c-.015.4.041.576.508.573,3.315-.021,6.63-.018,9.945-.009.351,0,.5-.063.515-.462q.141-4.274.334-8.546c.018-.406.026-.685-.531-.651-.426.026-.65-.29-.645-.716a.6.6,0,0,1,.689-.659,22.407,22.407,0,0,0,2.3-.071.6.6,0,0,1,.726.559c.045.411-.121.775-.548.8-.564.036-.592.328-.606.78-.2,6.177-.455,12.352-.534,18.533,0,.21,0,.421,0,.632,0,.872,0,.871.831.971a.7.7,0,0,1,.057,1.385,15.975,15.975,0,0,1-3.042-.033.637.637,0,0,1-.579-.782.573.573,0,0,1,.7-.582c.568.09.632-.172.635-.658q.029-4.277.123-8.553c.01-.45-.1-.573-.556-.57-3.3.021-6.591.016-9.887.01-.318,0-.516,0-.522.433-.043,2.85-.174,5.7.011,8.55.015.229.048.456.069.684s.1.347.36.308a.65.65,0,0,1,.842.627c.047.516-.313.69-.749.763-.1.018-.238-.029-.286.122H1.855a4.016,4.016,0,0,0-1.083-.059c-.4.066-.511-.24-.642-.515Z" transform="translate(-0.103 -182.713)" fill="#fff"/>
    <path id="Path_88" data-name="Path 88" d="M.027,343.024c.244.09.246.462.556.475.048.013.066.033.056.057S.616,343.6.6,343.6q-.73.155-.575-.574" transform="translate(0 -271.345)" fill="#fff"/>
    <path id="Path_89" data-name="Path 89" d="M2.808,345.285a.828.828,0,0,0-.019-.1c.39.025.8-.134,1.17.1Z" transform="translate(-2.206 -273.032)" fill="#fff"/>
    <path id="Path_90" data-name="Path 90" d="M202.261,233.479a5.409,5.409,0,0,1,1.655-1.967,4.2,4.2,0,0,1,1.776-.767,2.81,2.81,0,0,1,3.139,1.593,8.708,8.708,0,0,1,.843,3.372,65.958,65.958,0,0,1,.067,7.745c-.094,3.041-.165,6.083-.261,9.124-.011.362.069.463.447.4.574-.093.9.133.938.57.042.536-.262.754-.754.8a7.322,7.322,0,0,1-2.569-.033c-.471-.118-.778-.343-.708-.867.061-.46.4-.618,1.018-.516.056.009.112.017.31.045,0-1.128-.015-2.231,0-3.334.057-3.617.273-7.23.244-10.847a20.045,20.045,0,0,0-.433-4.731,5.943,5.943,0,0,0-.242-.764,1.62,1.62,0,0,0-2.443-.98,3.228,3.228,0,0,0-2.021,2.853c-.109,4.707-.464,9.4-.612,14.107-.013.413-.022.689.533.649.408-.029.622.286.621.676a.624.624,0,0,1-.67.7c-.862.007-1.725.008-2.587,0a.6.6,0,0,1-.648-.651c-.015-.429.2-.762.63-.716.665.071.664-.24.648-.754-.108-3.464.115-6.926.11-10.39a17.636,17.636,0,0,0-.223-4.229,4.629,4.629,0,0,0-.506-1.274,1.768,1.768,0,0,0-3.015-.211,3.3,3.3,0,0,0-.713,2.023c-.22,5.736-.6,11.466-.7,17.207-.007.4-.061.726.542.666a.561.561,0,0,1,.6.626.615.615,0,0,1-.53.7,6.66,6.66,0,0,1-2.848,0c-.538-.147-.761-.454-.644-.9a.649.649,0,0,1,.941-.467c.444.149.546.037.55-.421.044-5.857.416-11.7.7-17.55a4.007,4.007,0,0,1,2.052-3.618,3.021,3.021,0,0,1,4.232,1.134c.19.306.341.636.533,1" transform="translate(-152.848 -182.492)" fill="#fff"/>
    <path id="Path_91" data-name="Path 91" d="M382.994,235.71c0,.356,0,.712,0,1.068q-.08,8.3.1,16.592c.009.386-.023.727.534.384a.558.558,0,0,1,.795.234.673.673,0,0,1-.091.935,1.774,1.774,0,0,1-.819.394,8.731,8.731,0,0,1-2.461.08.628.628,0,0,1-.63-.737.593.593,0,0,1,.71-.638c.518.066.586-.145.573-.6-.2-6.793-.148-13.587-.079-20.381,0-.153,0-.306.016-.459a.708.708,0,0,1,.617-.718.676.676,0,0,1,.769.455q1.12,2.228,2.25,4.452l7.281,14.375c.067.132.14.262.211.392l.156-.008c0-.689,0-1.378,0-2.067.02-5.206.034-10.412.075-15.618,0-.5-.174-.554-.591-.509-.442.048-.984.179-1.074-.506a.686.686,0,0,1,.638-.854,11.934,11.934,0,0,1,3.152.006.693.693,0,0,1,.643.8.565.565,0,0,1-.745.575c-.559-.107-.611.154-.613.622q-.036,9.014-.107,18.028c-.006.8-.051,1.607-.054,2.41,0,.422-.094.769-.546.891-.5.137-.717-.193-.912-.579q-4.619-9.134-9.248-18.263c-.134-.264-.27-.526-.4-.789l-.149.028" transform="translate(-300.93 -183.403)" fill="#fff"/>
    <path id="Path_92" data-name="Path 92" d="M391.956,104.682q0-5.082,0-10.164c0-.951.145-1.089,1.1-1.1,2.951-.029,5.9-.064,8.853-.083.347,0,.552-.013.564-.462.011-.42.336-.622.767-.591a.6.6,0,0,1,.605.685c-.012.938-.022,1.876-.045,2.813a.68.68,0,0,1-.754.75c-.475-.013-.645-.319-.652-.77-.016-1.031-.024-1.038-1.041-1.029-2.51.023-5.02.061-7.531.073-.375,0-.48.108-.477.483q.024,3.9,0,7.81c0,.379.106.476.482.473q4.311-.039,8.623-.032c.333,0,.471-.063.485-.428a.59.59,0,0,1,.667-.572.649.649,0,0,1,.708.612,7.462,7.462,0,0,1-.158,2.28.6.6,0,0,1-.659.444.569.569,0,0,1-.646-.524c-.02-.425-.242-.428-.551-.426-2.76.016-5.519.035-8.279.029-.5,0-.684.107-.678.661.032,2.813.022,5.628.007,8.441,0,.4.063.555.516.575,3.009.137,6.016,0,9.024-.041.3,0,.394-.1.387-.393-.011-.493.212-.815.753-.795.526.019.667.375.67.824,0,.632,0,1.263,0,1.9,0,.461-.172.8-.665.842a.653.653,0,0,1-.755-.682c-.024-.429-.323-.3-.539-.29-2.471.1-4.943.1-7.415.079-.823-.006-1.647-.048-2.47-.087-.709-.034-.9-.236-.9-.964q0-5.168,0-10.336" transform="translate(-310.052 -72.998)" fill="#fff"/>
    <path id="Path_93" data-name="Path 93" d="M94.769,230.482c-.327.095-.563.165-.8.232a.617.617,0,0,1-.86-.433.686.686,0,0,1,.468-.915,7.547,7.547,0,0,1,2.768-.412,9.821,9.821,0,0,1,1.142.119.581.581,0,0,1,.571.708.7.7,0,0,1-.734.659c-.349.02-.784-.256-1.025.065a2.58,2.58,0,0,0-.283,1.037,24.78,24.78,0,0,0-.135,7.035,29.151,29.151,0,0,0,1.567,7.557,12.227,12.227,0,0,0,2.045,3.759,3.6,3.6,0,0,0,1.312,1,2.254,2.254,0,0,0,2.589-.52,7.743,7.743,0,0,0,1.726-2.685,28.845,28.845,0,0,0,1.869-7.192,58.953,58.953,0,0,0,.61-9.727c0-.414-.077-.535-.506-.4a.64.64,0,0,1-.864-.528.633.633,0,0,1,.513-.823,9.163,9.163,0,0,1,3.47-.287.762.762,0,0,1,.733.541.622.622,0,0,1-.642.881c-.427,0-.983-.3-1.24.062-.2.277-.038.811-.039,1.231a50.8,50.8,0,0,1-1.675,14.137,14.086,14.086,0,0,1-2.438,5.27,3.912,3.912,0,0,1-6.2.26,12.665,12.665,0,0,1-2.852-5.309A34.832,34.832,0,0,1,94.48,232.2c.05-.545.18-1.082.289-1.716" transform="translate(-73.621 -180.891)" fill="#fff"/>
    <path id="Path_94" data-name="Path 94" d="M77.471,102.63c.14-3.252.064-6.506.21-9.756.022-.494-.13-.61-.6-.587-.995.048-1.988.1-2.978.21-.316.035-.472.084-.45.465.026.451-.271.7-.718.726s-.594-.241-.663-.63a6.755,6.755,0,0,1,0-2.395c.067-.375.248-.6.644-.586a.689.689,0,0,1,.732.661c.023.251-.008.431.357.382a56.326,56.326,0,0,1,6.771-.22l.862-.012c.357-.005.738.071.664-.532-.034-.282.243-.457.525-.527a.567.567,0,0,1,.654.249,3.686,3.686,0,0,1,.463,2.48.633.633,0,0,1-.677.513.565.565,0,0,1-.643-.455c-.055-.352-.262-.348-.532-.342-.824.016-1.649.044-2.471,0-.471-.023-.553.145-.561.575-.1,5.07-.079,10.14-.109,15.21-.009,1.473-.044,2.946-.094,4.418-.013.383.1.5.48.48.784-.032,1.571-.026,2.356-.022.255,0,.387-.06.374-.353a.645.645,0,0,1,.7-.732c.453,0,.668.315.689.759a6.836,6.836,0,0,1-.134,1.768c-.07.322-.212.587-.57.634a.654.654,0,0,1-.756-.394c-.109-.311-.306-.283-.534-.283-2.069,0-4.138,0-6.207-.015-.29,0-.439.035-.474.378a.6.6,0,0,1-.684.558.656.656,0,0,1-.669-.587,12.106,12.106,0,0,1-.186-1.939.677.677,0,0,1,.607-.775.64.64,0,0,1,.8.618c.029.294.19.323.423.327.632.009,1.265.009,1.895.055.411.03.512-.119.51-.514-.014-3.271-.008-6.543-.008-9.814" transform="translate(-57.087 -71.042)" fill="#fff"/>
    <path id="Path_95" data-name="Path 95" d="M151.066,104.427c.094,2.16.2,4.319.273,6.479.017.514.264.442.591.341.406-.126.8-.19,1.023.306a.7.7,0,0,1-.473,1,6.614,6.614,0,0,1-3.122.21.565.565,0,0,1-.546-.675c.05-.378.256-.7.656-.665.488.038.514-.176.488-.558q-.279-3.952-.281-7.914c-.005-2.506.114-5.01.343-7.507.129-1.409.256-2.818.406-4.225.041-.38-.066-.488-.45-.483q-2.5.03-5,0c-.325,0-.426.071-.407.408.033.567-.218.874-.66.867-.514-.007-.687-.358-.724-.8a6,6,0,0,1,.233-2.326.693.693,0,0,1,.808-.566.6.6,0,0,1,.591.747c-.066.4.222.272.393.273,2.05.007,4.1,0,6.15,0,1.859,0,3.717-.008,5.576.007.382,0,.61-.019.56-.508a.611.611,0,0,1,.659-.7.675.675,0,0,1,.74.652,10.237,10.237,0,0,1-.15,2.513.625.625,0,0,1-.711.534.6.6,0,0,1-.623-.678c.029-.387-.136-.428-.458-.425-1.533.014-3.066.017-4.6,0-.359,0-.5.1-.538.462a115.288,115.288,0,0,0-.746,13.229" transform="translate(-113.242 -69.724)" fill="#fff"/>
    <path id="Path_96" data-name="Path 96" d="M240.792,104.461c.094,2.14.2,4.281.272,6.422.014.4.141.519.512.393a2.722,2.722,0,0,1,.332-.09.609.609,0,0,1,.8.454.641.641,0,0,1-.373.855,6.093,6.093,0,0,1-3.334.244.537.537,0,0,1-.458-.68c.065-.375.281-.675.684-.639.464.042.481-.172.456-.527q-.272-3.952-.28-7.914c-.006-2.506.114-5.01.339-7.508.128-1.428.26-2.856.41-4.282.038-.36-.067-.455-.425-.451q-2.529.027-5.058,0c-.311,0-.413.083-.37.383.072.5-.115.834-.64.891-.429.047-.711-.269-.752-.825a6.146,6.146,0,0,1,.214-2.214c.131-.444.368-.719.862-.641a.6.6,0,0,1,.556.773c-.054.3.15.244.313.245.575,0,1.15,0,1.724,0,3.372,0,6.745,0,10.117.006.362,0,.574-.025.527-.482a.617.617,0,0,1,.635-.729.685.685,0,0,1,.771.682,10.714,10.714,0,0,1-.148,2.457.637.637,0,0,1-.749.556.583.583,0,0,1-.589-.65c.038-.423-.155-.454-.493-.451-1.514.014-3.028.018-4.541,0-.383-.005-.531.095-.569.493a115.2,115.2,0,0,0-.741,13.23" transform="translate(-184.22 -69.726)" fill="#fff"/>
    <path id="Path_97" data-name="Path 97" d="M2.834,111.651c.141-5.743.546-10.987,1.17-16.213.053-.444-.048-.6-.5-.523a2.824,2.824,0,0,1-.574.022.585.585,0,0,1-.634-.6.643.643,0,0,1,.533-.768,13.8,13.8,0,0,1,3.838.038.676.676,0,0,1,.551.822c-.048.417-.333.548-.739.54-1.014-.019-1.039-.011-1.149.994-.362,3.309-.659,6.623-.856,9.947-.179,3.02-.254,6.041-.269,9.066,0,.506.1.683.651.651a57.621,57.621,0,0,1,7.352-.037c.512.036.31-.323.322-.537.034-.625.453-.935.983-.7a.621.621,0,0,1,.41.572,13.656,13.656,0,0,1-.093,2.692c-.073.454-.283.786-.784.71a.665.665,0,0,1-.6-.874c.1-.426-.1-.453-.44-.473a63.524,63.524,0,0,0-8.04.117c-.993.066-1.164-.057-1.178-1.1-.022-1.607-.027-3.215.039-4.342" transform="translate(-1.819 -73.924)" fill="#fff"/>
    <path id="Path_98" data-name="Path 98" d="M322.618,111.649c.143-5.756.548-11.018,1.175-16.264.045-.375-.034-.538-.437-.474a3.512,3.512,0,0,1-.631.025.585.585,0,0,1-.638-.593.643.643,0,0,1,.527-.772,13.812,13.812,0,0,1,3.838.035.677.677,0,0,1,.557.819c-.045.415-.326.552-.734.545-1.018-.018-1.043-.009-1.153.988-.363,3.309-.66,6.623-.857,9.947-.18,3.039-.251,6.08-.273,9.123,0,.541.165.622.649.6a58.761,58.761,0,0,1,7.353-.032c.449.032.326-.253.332-.476.017-.6.28-.906.753-.831a.653.653,0,0,1,.634.63,12.828,12.828,0,0,1-.1,2.748c-.075.434-.3.732-.77.66a.666.666,0,0,1-.606-.87c.093-.414-.088-.458-.434-.479a63.874,63.874,0,0,0-8.04.117c-1,.066-1.168-.055-1.183-1.095-.023-1.608-.026-3.216.039-4.349" transform="translate(-254.78 -73.924)" fill="#fff"/>
    <path id="Path_99" data-name="Path 99" d="M294.585,254.018a5.082,5.082,0,0,1,.513-.025.634.634,0,0,1,.635.618.582.582,0,0,1-.43.712,6.167,6.167,0,0,1-3.069.054.546.546,0,0,1-.427-.656c.043-.391.286-.737.649-.664.766.154.753-.341.852-.819q1.888-9.093,3.79-18.184a2.927,2.927,0,0,1,2.914-2.649,2.1,2.1,0,0,1,2.258,1.651,27.03,27.03,0,0,1,.7,3.307c1.024,5.427,1.956,10.872,3.122,16.272.067.313.052.694.6.513a.5.5,0,0,1,.645.423c.09.335.07.694-.279.854a5,5,0,0,1-3.082.37.659.659,0,0,1-.473-.815.546.546,0,0,1,.694-.51c.6.1.623-.131.514-.645-.509-2.392-.984-4.792-1.449-7.194-.077-.4-.18-.465-.591-.35a11.136,11.136,0,0,1-5.957.034c-.383-.1-.523-.065-.6.336-.49,2.435-1,4.865-1.518,7.365m7.778-9.1c.395-.117.538-.285.448-.733-.36-1.8-.676-3.6-1-5.409-.232-1.278-.446-2.56-.7-3.834-.1-.483-.212-1-.824-1.122a1.523,1.523,0,0,0-1.549.765,3.344,3.344,0,0,0-.361,1.023c-.591,2.9-1.167,5.8-1.78,8.7-.086.407.022.54.378.641a10.348,10.348,0,0,0,5.389-.032" transform="translate(-230.826 -183.842)" fill="#fff"/>
    <path id="Path_100" data-name="Path 100" d="M739.425,332.6c-.155-.038-.309-.075-.462-.111h0c-.079.038-.155.075-.232.113a.824.824,0,0,0,.558.132,1.01,1.01,0,0,0,.807.025l-.669-.159" transform="translate(-584.363 -263.012)" fill="#fff"/>
    <path id="Path_101" data-name="Path 101" d="M572.1,68.178c-.267-2.61-1.872-3.8-4.463-3.4a10.963,10.963,0,0,0-4.388,1.766,16.681,16.681,0,0,1-2.416,1.442,1.954,1.954,0,0,1-.991.247,19.327,19.327,0,0,1-2.165-.272c-.827-.188-.911-.349-.656-1.143a22.982,22.982,0,0,0,1.271-4.708,35.635,35.635,0,0,0-.071-7.681,14.42,14.42,0,0,0-5.51-9.744,19.548,19.548,0,0,0-5.337-3.011c-.165-.063-.43-.067-.428-.311,0-.19.23-.238.38-.309a32.745,32.745,0,0,0,4.338-2.589,19.679,19.679,0,0,0,6.386-6.495,1.6,1.6,0,0,1,.957-.767,8.652,8.652,0,0,0,2.925-1.674c1.54-1.335,2.716-2.811,2.508-5.069a4.392,4.392,0,0,0-3.356-4.213.935.935,0,0,1-.892-.917,14.28,14.28,0,0,0-.823-3.105,14.952,14.952,0,0,0-4.1-5.951c-1.133-1.028-2.351-1.964-3.561-2.9a15.107,15.107,0,0,0-6.969-3.084c-1.617-.253-3.272-.326-4.913-.422a13,13,0,0,1-2.269-.326,2.765,2.765,0,0,1-2.133-2.313c-.1-.527-.157-1.087-.832-1.225h-.46a2.723,2.723,0,0,0-1.626,1.151,7.163,7.163,0,0,0-.867,4.6.658.658,0,0,1-.42.815,20.966,20.966,0,0,0-2.173,1.045c-1.287.8-2.462,1.755-3.73,2.581a17.559,17.559,0,0,0-4.62,4.344,17.8,17.8,0,0,0-3.088,5.993c-.186.723-.268.725-1.011.715a3.431,3.431,0,0,0-2.729,1.112A4.68,4.68,0,0,0,512.8,26.7a6.223,6.223,0,0,0,4.1,4.668,1.657,1.657,0,0,1,1.032.978,15.476,15.476,0,0,0,6.413,7.443,23.266,23.266,0,0,0,4.348,2.2c.525.182.547.349.117.69s-.807.765-1.218,1.139a5.382,5.382,0,0,1-5.044,1.538,8.8,8.8,0,0,1-3.105-1.306,23.661,23.661,0,0,1-2.489-2.119c-1.112-1.026-2.123-2.154-3.166-3.251a1.124,1.124,0,0,1-.288-1.344,7.4,7.4,0,0,0,.535-2.111c.083-.938-.6-1.406-1.419-.974-.249.132-.334.086-.41-.15-.119-.364-.224-.733-.372-1.087a2.2,2.2,0,0,0-.706-1.095.8.8,0,0,0-1.011-.025c-.3.221-.119,1.378-.034,1.711-.242-.489-.935-1.44-1.531-1.073-.384.237-.347.644-.211,1.045a3.711,3.711,0,0,1,.374,1.4c-.293-.1-.343-.341-.449-.529a2.932,2.932,0,0,0-.51-.759.882.882,0,0,0-1.066-.136.81.81,0,0,0-.355,1,3.716,3.716,0,0,0,.353.721,1.229,1.229,0,0,1,.217.867,5.168,5.168,0,0,1-.664-.639,1.011,1.011,0,0,0-1.308-.146.922.922,0,0,0-.217,1.285,11.18,11.18,0,0,0,2.679,3.63,2.943,2.943,0,0,1,.957,1.456,33.318,33.318,0,0,0,2.439,5.575,17.247,17.247,0,0,0,2.643,3.747,15.674,15.674,0,0,0,6.133,4.043c.573.2.65.37.405.9a28.1,28.1,0,0,0-2.472,8.7,2.911,2.911,0,0,1-2.052,2.585c-1.726.631-3.435,1.314-5.191,1.872a1.164,1.164,0,0,1-1.225-.23,24.275,24.275,0,0,0-2.284-1.739,13.934,13.934,0,0,0-3.486-1.864,2.971,2.971,0,0,0-3.987,2.487,20.414,20.414,0,0,0,.153,6.106,23.382,23.382,0,0,0,1.785,5.512,13.034,13.034,0,0,0,3.074,4.47,4.07,4.07,0,0,0,2.056,1.2,9.567,9.567,0,0,0,5.145-.435c1.137-.466,2.234-1.009,3.343-1.532,2.62-1.235,5.04-2.836,7.579-4.219a4.045,4.045,0,0,1,1.851-.733c1.034,0,2.069-.046,3.1-.144,1.262-.117,2.528-.04,3.786-.13,2.138-.15,4.282-.153,6.419-.307q1.831-.132,3.661-.282a14.1,14.1,0,0,1,5.891.627c.742.261,1.488.506,2.228.771a40.942,40.942,0,0,1,5.918,2.656,22.4,22.4,0,0,0,2.689,1.3,7.141,7.141,0,0,0,6.86-.629c.675-.443,1.247-1.02,1.9-1.488a14.418,14.418,0,0,0,4.764-6.7,11.758,11.758,0,0,0,.633-5.663M549.74,69.722a.823.823,0,0,1-.558-.132,3.039,3.039,0,0,1-2.539-2.033,4.052,4.052,0,0,1,.015-2.474c.848-2.395,1.693-4.794,2.46-7.215a13.006,13.006,0,0,0,.794-5.03c.313.267.3.27.326.7a13.712,13.712,0,0,1-.859,5.059c-.673,2.01-1.319,4.031-1.962,6.052a6.391,6.391,0,0,0-.276,1.227c-.19,1.785.368,2.652,2.274,3.6h0c.153.036.307.073.462.111l.669.159a1.011,1.011,0,0,1-.807-.025" transform="translate(-394.816)" fill="#fff"/>
    <path id="Path_102" data-name="Path 102" d="M738.961,332.49c.006.209-.1.182-.232.113.077-.038.153-.075.232-.113" transform="translate(-584.363 -263.012)" fill="#fff"/>
    <path id="Path_103" data-name="Path 103" d="M742.206,333.179a1.01,1.01,0,0,1-.807-.025c.006-.073.073-.081.119-.115l.019-.019.669.159" transform="translate(-586.475 -263.432)" fill="#fff"/>
    <path id="Path_104" data-name="Path 104" d="M739.425,332.6l-.019.019c-.04.04-.079.077-.119.115a.824.824,0,0,1-.558-.132c.077-.038.153-.075.232-.113h0c.153.036.307.073.462.111" transform="translate(-584.363 -263.012)" fill="#fff"/>
  </g>
</svg>
